<?xml version="1.0" encoding="utf-8"?>
<!-- Generator: Adobe Illustrator 19.2.1, SVG Export Plug-In . SVG Version: 6.00 Build 0)  -->
<svg version="1.1" id="layer" xmlns="http://www.w3.org/2000/svg" xmlns:xlink="http://www.w3.org/1999/xlink" x="0px" y="0px"
	 viewBox="0 0 652 652" style="enable-background:new 0 0 652 652;" xml:space="preserve">
<style type="text/css">
	.st0{fill:#CC0000;}
	.st1{fill:#002E6D;}
</style>
<polygon class="st0" points="197.5,390.9 58,390.9 56.6,390.9 56.6,389.6 56.6,370.9 44.7,370.9 44.7,402.9 197.5,402.9 "/>
<polygon class="st1" points="44.9,238.3 44.9,270.3 56.9,270.3 56.9,251.6 56.9,250.3 58.2,250.3 196.3,250.3 197.6,250.3 
	197.6,251.6 197.6,270.3 209.6,270.3 209.6,238.3 "/>
<path class="st1" d="M35.3,335.4c0.1,4.2,2.1,12.1,15.2,12.1c7.1,0,15-1.8,15-9.7c0-5.8-5.4-7.4-13-9.3l-7.7-1.9
	c-11.6-2.8-22.9-5.5-22.9-22c0-8.3,4.3-23,27.7-23c22.1,0,28,15,28.1,24.2H63.2c-0.4-3.3-1.6-11.3-14.8-11.3c-5.7,0-12.5,2.2-12.5,9
	c0,5.8,4.6,7.1,7.6,7.8l17.6,4.5c9.8,2.5,18.9,6.7,18.9,20.1c0,22.5-22.1,24.5-28.4,24.5c-26.3,0-30.8-15.7-30.8-25H35.3z"/>
<path class="st1" d="M99,283.6h36.4c18.3,0,23,11.5,23,19.2c0,10.7-6,13.8-9.2,15.3c9.2,3.4,11.6,10.7,11.6,18.1
	c0,5.9-2.5,11.6-6.5,15.4c-4.3,4.2-8.3,6.8-23.7,6.8H99V283.6z M114,312.9h18.3c6.1,0,11.1-2.4,11.1-8.3c0-6.1-4.4-8-11.5-8H114
	V312.9z M114,345.5h19.2c7.6,0,12-3.3,12-10.9c0-6.6-5.6-9.1-11.3-9.1H114V345.5z"/>
<polygon class="st1" points="209.5,283.6 197.6,283.6 173.8,358.4 188.8,358.4 203.4,309.3 218.2,358.4 233.2,358.4 "/>
<polygon class="st1" points="209.4,390.9 197.5,402.9 197.5,358.6 209.4,358.6 "/>
<path class="st1" d="M276.2,283.4h3.5v16.2c0,1.7,0.2,3,0.5,4.2c0.3,1.1,0.8,2,1.4,2.7c0.6,0.7,1.2,1.2,2,1.4
	c0.8,0.3,1.6,0.4,2.5,0.4c0.9,0,1.8-0.1,2.6-0.4c0.8-0.3,1.5-0.8,2.1-1.4c0.6-0.7,1-1.6,1.4-2.7c0.3-1.1,0.5-2.5,0.5-4.2v-16.2h3.4
	v16.1c0,2.2-0.2,4.1-0.8,5.6c-0.5,1.5-1.2,2.7-2.1,3.7c-0.9,0.9-1.9,1.6-3.1,2c-1.2,0.4-2.5,0.6-3.9,0.6c-1.4,0-2.7-0.2-3.9-0.6
	c-1.2-0.4-2.3-1.1-3.1-2s-1.6-2.2-2.1-3.7c-0.5-1.5-0.8-3.4-0.8-5.6V283.4z"/>
<path class="st1" d="M298.5,308.8c0-0.8,0.2-1.5,0.7-1.9c0.5-0.5,1.1-0.7,1.8-0.7c0.7,0,1.3,0.2,1.7,0.7c0.5,0.5,0.7,1.1,0.7,1.9
	c0,0.8-0.2,1.4-0.7,1.9c-0.5,0.5-1.1,0.7-1.7,0.7c-0.7,0-1.3-0.2-1.8-0.7C298.7,310.2,298.5,309.6,298.5,308.8"/>
<path class="st1" d="M309.4,304.9c1,1,2.1,1.9,3.5,2.5c1.3,0.6,2.7,0.9,4.1,0.9c1.8,0,3.2-0.4,4.2-1.2c1-0.8,1.5-1.9,1.5-3.2
	c0-0.7-0.1-1.3-0.4-1.8c-0.2-0.5-0.6-0.9-1-1.3c-0.4-0.3-0.9-0.7-1.4-0.9c-0.6-0.3-1.2-0.6-1.8-0.9l-3.9-1.7c-0.6-0.3-1.3-0.6-2-1
	c-0.7-0.4-1.3-0.9-1.8-1.4c-0.5-0.6-1-1.2-1.3-2c-0.3-0.8-0.5-1.7-0.5-2.7c0-1,0.2-2,0.6-2.9c0.4-0.9,1-1.7,1.8-2.3
	c0.8-0.7,1.7-1.2,2.7-1.5c1-0.4,2.2-0.5,3.5-0.5c1.7,0,3.2,0.3,4.6,0.9c1.4,0.6,2.6,1.4,3.6,2.5l-1.9,2.3c-0.8-0.8-1.8-1.4-2.8-1.9
	c-1-0.5-2.2-0.7-3.5-0.7c-1.5,0-2.8,0.4-3.7,1.1c-0.9,0.7-1.4,1.7-1.4,3c0,0.7,0.1,1.2,0.4,1.7c0.3,0.5,0.6,0.9,1.1,1.2
	c0.4,0.4,0.9,0.7,1.5,0.9c0.5,0.3,1.1,0.5,1.6,0.7l3.9,1.7c0.8,0.3,1.5,0.7,2.2,1.2c0.7,0.4,1.3,0.9,1.8,1.5c0.5,0.6,0.9,1.2,1.2,2
	c0.3,0.8,0.4,1.7,0.4,2.7c0,1.1-0.2,2.1-0.7,3.1c-0.4,0.9-1.1,1.8-1.9,2.5c-0.8,0.7-1.8,1.3-2.9,1.7c-1.1,0.4-2.4,0.6-3.9,0.6
	c-1.9,0-3.7-0.4-5.4-1.1c-1.7-0.7-3.1-1.7-4.3-3L309.4,304.9z"/>
<path class="st1" d="M330.1,308.8c0-0.8,0.2-1.5,0.7-1.9c0.5-0.5,1.1-0.7,1.8-0.7c0.7,0,1.3,0.2,1.7,0.7c0.5,0.5,0.7,1.1,0.7,1.9
	c0,0.8-0.2,1.4-0.7,1.9c-0.5,0.5-1.1,0.7-1.7,0.7c-0.7,0-1.3-0.2-1.8-0.7C330.3,310.2,330.1,309.6,330.1,308.8"/>
<path class="st1" d="M351.4,304.9c1,1,2.1,1.9,3.5,2.5c1.3,0.6,2.7,0.9,4.1,0.9c1.8,0,3.2-0.4,4.2-1.2c1-0.8,1.5-1.9,1.5-3.2
	c0-0.7-0.1-1.3-0.4-1.8c-0.2-0.5-0.6-0.9-1-1.3c-0.4-0.3-0.9-0.7-1.4-0.9c-0.6-0.3-1.2-0.6-1.8-0.9l-3.9-1.7c-0.6-0.3-1.3-0.6-2-1
	c-0.7-0.4-1.3-0.9-1.8-1.4c-0.5-0.6-1-1.2-1.3-2c-0.3-0.8-0.5-1.7-0.5-2.7c0-1,0.2-2,0.7-2.9c0.4-0.9,1-1.7,1.8-2.3
	c0.8-0.7,1.7-1.2,2.7-1.5c1-0.4,2.2-0.5,3.5-0.5c1.6,0,3.2,0.3,4.6,0.9c1.4,0.6,2.6,1.4,3.6,2.5l-1.9,2.3c-0.8-0.8-1.8-1.4-2.8-1.9
	c-1-0.5-2.2-0.7-3.5-0.7c-1.5,0-2.8,0.4-3.7,1.1c-0.9,0.7-1.4,1.7-1.4,3c0,0.7,0.1,1.2,0.4,1.7c0.3,0.5,0.6,0.9,1.1,1.2
	c0.4,0.4,0.9,0.7,1.5,0.9c0.5,0.3,1.1,0.5,1.6,0.7l3.9,1.7c0.8,0.3,1.5,0.7,2.2,1.2c0.7,0.4,1.3,0.9,1.8,1.5c0.5,0.6,0.9,1.2,1.2,2
	c0.3,0.8,0.4,1.7,0.4,2.7c0,1.1-0.2,2.1-0.7,3.1c-0.4,0.9-1.1,1.8-1.9,2.5c-0.8,0.7-1.8,1.3-2.9,1.7c-1.1,0.4-2.4,0.6-3.9,0.6
	c-1.9,0-3.7-0.4-5.4-1.1c-1.7-0.7-3.1-1.7-4.3-3L351.4,304.9z"/>
<path class="st1" d="M374.4,290.6h2.9l0.3,2.9h0.1c0.9-1,1.9-1.8,2.9-2.5c1-0.7,2.2-1,3.4-1c1.6,0,2.8,0.3,3.7,1
	c0.9,0.7,1.5,1.6,2,2.9c1.1-1.2,2.1-2.1,3.2-2.8c1.1-0.7,2.2-1.1,3.5-1.1c2.1,0,3.7,0.7,4.7,2c1,1.3,1.5,3.3,1.5,6v12.9h-3.4v-12.5
	c0-1.9-0.3-3.3-0.9-4.2c-0.6-0.8-1.6-1.3-2.8-1.3c-1.5,0-3.2,1-5.1,3.1v14.8h-3.4v-12.5c0-1.9-0.3-3.3-0.9-4.2
	c-0.6-0.8-1.6-1.3-2.9-1.3c-1.5,0-3.2,1-5.1,3.1v14.8h-3.4V290.6z"/>
<path class="st1" d="M408.3,305.6c0-2.2,1-3.9,3-5.1c2-1.2,5.2-2,9.5-2.5c0-0.6-0.1-1.3-0.2-1.9c-0.1-0.6-0.3-1.2-0.7-1.6
	c-0.3-0.5-0.7-0.9-1.3-1.2c-0.5-0.3-1.2-0.4-2.1-0.4c-1.2,0-2.3,0.2-3.3,0.7c-1,0.4-1.9,1-2.8,1.5l-1.4-2.4c1-0.6,2.1-1.2,3.5-1.8
	c1.4-0.6,2.9-0.9,4.5-0.9c2.5,0,4.3,0.8,5.4,2.3c1.1,1.5,1.7,3.6,1.7,6.1v12.5h-2.8l-0.3-2.4h-0.1c-1,0.8-2,1.5-3.2,2.1
	c-1.1,0.6-2.3,0.9-3.6,0.9c-1.7,0-3.2-0.5-4.3-1.5C408.9,308.9,408.3,307.5,408.3,305.6 M411.7,305.4c0,1.2,0.3,2,1,2.5
	c0.7,0.5,1.5,0.8,2.5,0.8c1,0,1.9-0.2,2.8-0.7c0.9-0.5,1.8-1.1,2.8-2v-5.7c-1.7,0.2-3.1,0.5-4.3,0.8c-1.2,0.3-2.1,0.7-2.8,1.1
	c-0.7,0.4-1.2,0.9-1.5,1.4C411.9,304.2,411.7,304.8,411.7,305.4"/>
<path class="st1" d="M431.9,281.1h3.4v26c0,0.6,0.1,0.9,0.3,1.2c0.2,0.2,0.4,0.3,0.7,0.3h0.3c0.1,0,0.2,0,0.4-0.1l0.5,2.6
	c-0.2,0.1-0.5,0.2-0.8,0.2c-0.3,0.1-0.7,0.1-1.2,0.1c-1.3,0-2.3-0.4-2.8-1.2c-0.6-0.8-0.8-1.9-0.8-3.4V281.1z"/>
<path class="st1" d="M443.6,281.1h3.4v26c0,0.6,0.1,0.9,0.3,1.2c0.2,0.2,0.4,0.3,0.7,0.3h0.3c0.1,0,0.2,0,0.4-0.1l0.5,2.6
	c-0.2,0.1-0.5,0.2-0.8,0.2c-0.3,0.1-0.7,0.1-1.2,0.1c-1.3,0-2.2-0.4-2.8-1.2c-0.6-0.8-0.8-1.9-0.8-3.4V281.1z"/>
<path class="st1" d="M465.2,283.4h8.2c1.4,0,2.7,0.1,3.8,0.4c1.2,0.3,2.1,0.6,3,1.2c0.8,0.5,1.5,1.2,1.9,2.1
	c0.5,0.9,0.7,1.9,0.7,3.1c0,1.4-0.4,2.6-1.2,3.7c-0.8,1.1-2,1.9-3.6,2.3v0.2c2,0.3,3.6,1,4.7,2.1c1.1,1.1,1.7,2.6,1.7,4.5
	c0,1.3-0.2,2.5-0.8,3.5c-0.5,1-1.2,1.8-2.1,2.5c-0.9,0.7-2,1.2-3.3,1.5c-1.3,0.3-2.7,0.5-4.2,0.5h-8.8V283.4z M472.7,295.2
	c2.4,0,4.1-0.4,5.1-1.2c1-0.8,1.5-2,1.5-3.5c0-1.5-0.5-2.6-1.6-3.2c-1.1-0.7-2.7-1-4.8-1h-4.2v9H472.7z M473.5,308.2
	c2.4,0,4.2-0.4,5.5-1.3c1.3-0.9,2-2.3,2-4.1c0-1.7-0.6-3-1.9-3.8c-1.3-0.8-3.1-1.2-5.6-1.2h-4.8v10.4H473.5z"/>
<path class="st1" d="M489.4,290.6h3.5V303c0,1.9,0.3,3.3,0.9,4.2c0.6,0.9,1.6,1.3,2.9,1.3c1.1,0,2-0.3,2.8-0.8
	c0.8-0.5,1.7-1.4,2.7-2.6v-14.5h3.4v20.4h-2.8l-0.3-3.2h-0.1c-0.9,1.1-1.9,2-3,2.7c-1,0.7-2.3,1-3.7,1c-2.2,0-3.8-0.7-4.8-2
	c-1-1.3-1.5-3.3-1.5-6V290.6z"/>
<path class="st1" d="M513,306.3c0.9,0.7,1.8,1.3,2.7,1.8c0.9,0.4,2,0.7,3.2,0.7c1.3,0,2.3-0.3,3-0.9c0.7-0.6,1-1.4,1-2.3
	c0-0.5-0.1-1-0.4-1.4c-0.3-0.4-0.6-0.7-1.1-1c-0.4-0.3-0.9-0.5-1.5-0.8c-0.6-0.2-1.1-0.4-1.7-0.7c-0.7-0.2-1.5-0.5-2.2-0.9
	c-0.7-0.3-1.4-0.7-2-1.2c-0.6-0.5-1-1-1.4-1.6c-0.4-0.6-0.5-1.4-0.5-2.2c0-0.8,0.2-1.6,0.5-2.3c0.3-0.7,0.8-1.3,1.4-1.8
	c0.6-0.5,1.3-0.9,2.2-1.2c0.9-0.3,1.8-0.4,2.9-0.4c1.3,0,2.5,0.2,3.5,0.7c1.1,0.4,2,1,2.8,1.6l-1.6,2.2c-0.7-0.5-1.4-1-2.2-1.3
	c-0.8-0.3-1.6-0.5-2.5-0.5c-1.3,0-2.2,0.3-2.8,0.9c-0.6,0.6-0.9,1.3-0.9,2.1c0,0.5,0.1,0.9,0.4,1.2c0.3,0.4,0.6,0.7,1,0.9
	c0.4,0.3,0.9,0.5,1.4,0.7c0.5,0.2,1.1,0.4,1.7,0.7c0.7,0.3,1.5,0.6,2.2,0.9c0.7,0.3,1.4,0.7,2,1.2c0.6,0.5,1.1,1,1.4,1.7
	c0.4,0.7,0.6,1.5,0.6,2.4c0,0.8-0.2,1.6-0.5,2.3c-0.3,0.7-0.8,1.4-1.4,1.9c-0.6,0.6-1.4,1-2.3,1.3s-2,0.5-3.2,0.5
	c-1.5,0-2.8-0.3-4.2-0.8c-1.3-0.5-2.5-1.2-3.4-2L513,306.3z"/>
<path class="st1" d="M534,286.4c-0.7,0-1.2-0.2-1.7-0.6c-0.5-0.4-0.7-1-0.7-1.6c0-0.7,0.2-1.2,0.7-1.6c0.5-0.4,1-0.6,1.7-0.6
	s1.2,0.2,1.7,0.6c0.5,0.4,0.7,0.9,0.7,1.6c0,0.6-0.2,1.2-0.7,1.6C535.2,286.2,534.6,286.4,534,286.4 M532.2,290.6h3.4v20.4h-3.4
	V290.6z"/>
<path class="st1" d="M543.6,290.6h2.9l0.3,2.9h0.1c1-1,2-1.8,3.1-2.5c1.1-0.7,2.3-1,3.8-1c2.2,0,3.7,0.7,4.7,2c1,1.3,1.5,3.3,1.5,6
	v12.9h-3.4v-12.5c0-1.9-0.3-3.3-0.9-4.2c-0.6-0.8-1.6-1.3-2.9-1.3c-1.1,0-2,0.3-2.8,0.8c-0.8,0.5-1.7,1.3-2.8,2.3v14.8h-3.4V290.6z"
	/>
<path class="st1" d="M566,300.8c0-1.7,0.3-3.2,0.8-4.5c0.5-1.3,1.2-2.5,2.1-3.4c0.8-0.9,1.8-1.6,2.9-2.1c1.1-0.5,2.2-0.7,3.4-0.7
	c1.3,0,2.4,0.2,3.5,0.7c1,0.4,1.9,1.1,2.6,1.9c0.7,0.8,1.2,1.8,1.6,3c0.4,1.2,0.5,2.5,0.5,3.9c0,0.8,0,1.4-0.1,1.9h-13.8
	c0.1,2.2,0.8,4,2,5.2c1.2,1.3,2.8,1.9,4.8,1.9c1,0,1.9-0.1,2.7-0.4c0.8-0.3,1.6-0.7,2.4-1.2l1.2,2.3c-0.9,0.6-1.9,1-3,1.5
	c-1.1,0.4-2.3,0.6-3.7,0.6c-1.4,0-2.7-0.2-3.8-0.7c-1.2-0.5-2.2-1.2-3.1-2.1c-0.9-0.9-1.6-2-2.1-3.3C566.3,304,566,302.5,566,300.8
	 M580.3,299.2c0-2.1-0.4-3.7-1.3-4.8c-0.9-1.1-2.1-1.7-3.7-1.7c-0.7,0-1.4,0.1-2.1,0.4c-0.7,0.3-1.2,0.7-1.8,1.3
	c-0.5,0.5-1,1.2-1.3,2c-0.3,0.8-0.6,1.7-0.7,2.7H580.3z"/>
<path class="st1" d="M588.9,306.3c0.9,0.7,1.8,1.3,2.7,1.8c0.9,0.4,2,0.7,3.2,0.7c1.3,0,2.3-0.3,3-0.9c0.7-0.6,1-1.4,1-2.3
	c0-0.5-0.1-1-0.4-1.4c-0.3-0.4-0.6-0.7-1.1-1c-0.4-0.3-0.9-0.5-1.5-0.8l-1.7-0.7c-0.7-0.2-1.5-0.5-2.2-0.9c-0.7-0.3-1.4-0.7-2-1.2
	c-0.6-0.5-1-1-1.4-1.6c-0.4-0.6-0.5-1.4-0.5-2.2c0-0.8,0.2-1.6,0.5-2.3c0.3-0.7,0.8-1.3,1.4-1.8c0.6-0.5,1.3-0.9,2.2-1.2
	c0.9-0.3,1.8-0.4,2.9-0.4c1.3,0,2.5,0.2,3.5,0.7c1.1,0.4,2,1,2.8,1.6l-1.6,2.2c-0.7-0.5-1.4-1-2.2-1.3c-0.8-0.3-1.6-0.5-2.5-0.5
	c-1.3,0-2.2,0.3-2.8,0.9c-0.6,0.6-0.9,1.3-0.9,2.1c0,0.5,0.1,0.9,0.4,1.2c0.3,0.4,0.6,0.7,1,0.9c0.4,0.3,0.9,0.5,1.4,0.7
	c0.5,0.2,1.1,0.4,1.7,0.7c0.7,0.3,1.5,0.6,2.2,0.9c0.7,0.3,1.4,0.7,2,1.2c0.6,0.5,1.1,1,1.4,1.7c0.4,0.7,0.6,1.5,0.6,2.4
	c0,0.8-0.2,1.6-0.5,2.3c-0.3,0.7-0.8,1.4-1.4,1.9c-0.6,0.6-1.4,1-2.4,1.3c-0.9,0.3-2,0.5-3.2,0.5c-1.5,0-2.8-0.3-4.2-0.8
	c-1.3-0.5-2.5-1.2-3.4-2L588.9,306.3z"/>
<path class="st1" d="M607.5,306.3c0.9,0.7,1.8,1.3,2.7,1.8c0.9,0.4,2,0.7,3.2,0.7c1.3,0,2.3-0.3,3-0.9c0.7-0.6,1-1.4,1-2.3
	c0-0.5-0.1-1-0.4-1.4c-0.3-0.4-0.6-0.7-1.1-1c-0.4-0.3-0.9-0.5-1.5-0.8c-0.6-0.2-1.1-0.4-1.7-0.7c-0.7-0.2-1.5-0.5-2.2-0.9
	c-0.7-0.3-1.4-0.7-1.9-1.2c-0.6-0.5-1-1-1.4-1.6c-0.4-0.6-0.5-1.4-0.5-2.2c0-0.8,0.2-1.6,0.5-2.3c0.3-0.7,0.8-1.3,1.4-1.8
	c0.6-0.5,1.3-0.9,2.2-1.2c0.9-0.3,1.8-0.4,2.9-0.4c1.3,0,2.5,0.2,3.5,0.7c1.1,0.4,2,1,2.8,1.6l-1.6,2.2c-0.7-0.5-1.4-1-2.2-1.3
	c-0.8-0.3-1.6-0.5-2.5-0.5c-1.3,0-2.2,0.3-2.8,0.9c-0.6,0.6-0.9,1.3-0.9,2.1c0,0.5,0.1,0.9,0.4,1.2c0.3,0.4,0.6,0.7,1,0.9
	c0.4,0.3,0.9,0.5,1.4,0.7c0.5,0.2,1.1,0.4,1.7,0.7c0.7,0.3,1.5,0.6,2.2,0.9c0.7,0.3,1.4,0.7,2,1.2c0.6,0.5,1.1,1,1.4,1.7
	c0.4,0.7,0.6,1.5,0.6,2.4c0,0.8-0.2,1.6-0.5,2.3c-0.3,0.7-0.8,1.4-1.4,1.9c-0.6,0.6-1.4,1-2.3,1.3c-0.9,0.3-2,0.5-3.2,0.5
	c-1.4,0-2.8-0.3-4.1-0.8c-1.3-0.5-2.5-1.2-3.4-2L607.5,306.3z"/>
<path class="st1" d="M288.9,349.7h-10l-2.6,8.4h-3.6l9.3-27.5h3.9l9.3,27.5h-3.7L288.9,349.7z M288,346.9l-1.3-4.2
	c-0.5-1.5-1-3.1-1.4-4.6c-0.4-1.5-0.9-3.1-1.3-4.7h-0.2c-0.4,1.6-0.9,3.1-1.3,4.7c-0.4,1.5-0.9,3.1-1.4,4.6l-1.3,4.2H288z"/>
<path class="st1" d="M298.4,348c0-1.7,0.2-3.1,0.7-4.5c0.5-1.3,1.1-2.5,2-3.4c0.8-0.9,1.7-1.6,2.8-2.1c1.1-0.5,2.2-0.8,3.4-0.8
	s2.2,0.2,3.1,0.6c0.9,0.4,1.7,1,2.6,1.7l-0.2-3.5v-7.8h3.5v29.9h-2.8l-0.3-2.4h-0.1c-0.8,0.8-1.7,1.5-2.8,2
	c-1.1,0.6-2.2,0.9-3.4,0.9c-2.6,0-4.6-0.9-6.1-2.8C299.1,354,298.4,351.4,298.4,348 M301.9,347.9c0,2.5,0.5,4.4,1.5,5.7
	c1,1.4,2.4,2.1,4.1,2.1c0.9,0,1.8-0.2,2.7-0.7c0.8-0.5,1.7-1.2,2.5-2.1v-10.7c-0.9-0.8-1.7-1.3-2.5-1.7c-0.8-0.3-1.6-0.5-2.5-0.5
	c-0.8,0-1.6,0.2-2.3,0.6c-0.7,0.4-1.3,0.9-1.9,1.6c-0.5,0.7-0.9,1.5-1.3,2.5C302.1,345.7,301.9,346.7,301.9,347.9"/>
<path class="st1" d="M323.3,337.7h2.9l0.3,2.9h0.1c0.9-1,1.9-1.8,2.9-2.5c1-0.7,2.2-1,3.4-1c1.6,0,2.8,0.3,3.7,1
	c0.9,0.7,1.5,1.6,2,2.9c1.1-1.2,2.1-2.1,3.2-2.8c1.1-0.7,2.2-1.1,3.5-1.1c2.1,0,3.7,0.7,4.7,2c1,1.3,1.5,3.3,1.5,6v12.9H348v-12.5
	c0-1.9-0.3-3.3-0.9-4.2c-0.6-0.9-1.6-1.3-2.8-1.3c-1.5,0-3.2,1-5.1,3.1v14.8h-3.4v-12.5c0-1.9-0.3-3.3-0.9-4.2
	c-0.6-0.9-1.6-1.3-2.9-1.3c-1.5,0-3.2,1-5.1,3.1v14.8h-3.4V337.7z"/>
<path class="st1" d="M360.9,333.5c-0.7,0-1.2-0.2-1.7-0.6c-0.5-0.4-0.7-1-0.7-1.6c0-0.7,0.2-1.2,0.7-1.6c0.5-0.4,1-0.6,1.7-0.6
	c0.7,0,1.2,0.2,1.7,0.6c0.5,0.4,0.7,0.9,0.7,1.6c0,0.6-0.2,1.2-0.7,1.6C362.1,333.3,361.5,333.5,360.9,333.5 M359.1,337.7h3.4v20.4
	h-3.4V337.7z"/>
<path class="st1" d="M370.5,337.7h2.8l0.3,2.9h0.1c1-1,2-1.8,3.1-2.5c1.1-0.7,2.3-1,3.7-1c2.2,0,3.7,0.7,4.7,2c1,1.3,1.5,3.3,1.5,6
	v12.9h-3.4v-12.5c0-1.9-0.3-3.3-0.9-4.2c-0.6-0.9-1.6-1.3-2.9-1.3c-1.1,0-2,0.3-2.8,0.8c-0.8,0.5-1.7,1.3-2.8,2.3v14.8h-3.4V337.7z"
	/>
<path class="st1" d="M396.2,333.5c-0.7,0-1.2-0.2-1.7-0.6c-0.5-0.4-0.7-1-0.7-1.6c0-0.7,0.2-1.2,0.7-1.6c0.5-0.4,1-0.6,1.7-0.6
	c0.7,0,1.2,0.2,1.7,0.6c0.5,0.4,0.7,0.9,0.7,1.6c0,0.6-0.2,1.2-0.7,1.6C397.5,333.3,396.9,333.5,396.2,333.5 M394.5,337.7h3.4v20.4
	h-3.4V337.7z"/>
<path class="st1" d="M405.3,353.5c0.9,0.7,1.8,1.3,2.8,1.8c0.9,0.4,2,0.7,3.2,0.7c1.3,0,2.3-0.3,3-0.9c0.7-0.6,1-1.4,1-2.3
	c0-0.5-0.1-1-0.4-1.4c-0.3-0.4-0.6-0.7-1.1-1c-0.4-0.3-0.9-0.5-1.5-0.8c-0.6-0.2-1.1-0.4-1.7-0.7c-0.7-0.2-1.5-0.5-2.2-0.9
	c-0.7-0.3-1.4-0.7-2-1.2c-0.6-0.5-1-1-1.4-1.6c-0.4-0.6-0.5-1.4-0.5-2.2c0-0.8,0.2-1.6,0.5-2.3c0.3-0.7,0.8-1.3,1.4-1.8
	c0.6-0.5,1.3-0.9,2.2-1.2c0.9-0.3,1.8-0.4,2.9-0.4c1.3,0,2.5,0.2,3.5,0.7c1.1,0.4,2,1,2.8,1.6l-1.6,2.2c-0.7-0.5-1.4-1-2.2-1.3
	c-0.8-0.3-1.6-0.5-2.5-0.5c-1.3,0-2.2,0.3-2.8,0.9c-0.6,0.6-0.9,1.3-0.9,2.1c0,0.5,0.1,0.9,0.4,1.2c0.2,0.3,0.6,0.7,1,0.9
	c0.4,0.3,0.9,0.5,1.4,0.7c0.5,0.2,1.1,0.4,1.7,0.6c0.7,0.3,1.5,0.6,2.2,0.9c0.7,0.3,1.4,0.7,2,1.2c0.6,0.5,1.1,1,1.4,1.7
	c0.4,0.7,0.6,1.5,0.6,2.4c0,0.8-0.2,1.6-0.5,2.3c-0.3,0.7-0.8,1.4-1.4,1.9c-0.6,0.6-1.4,1-2.3,1.3c-0.9,0.3-2,0.5-3.2,0.5
	c-1.5,0-2.8-0.3-4.1-0.8c-1.3-0.5-2.5-1.2-3.4-2L405.3,353.5z"/>
<path class="st1" d="M425,340.5h-3v-2.6l3.2-0.2l0.4-5.7h2.9v5.7h5.5v2.8h-5.5v11.3c0,1.3,0.2,2.2,0.7,2.9c0.5,0.7,1.3,1,2.5,1
	c0.4,0,0.8-0.1,1.2-0.2c0.4-0.1,0.8-0.2,1.1-0.4l0.7,2.6c-0.6,0.2-1.2,0.4-1.8,0.5c-0.7,0.2-1.3,0.2-2,0.2c-1.1,0-2-0.2-2.7-0.5
	c-0.7-0.3-1.3-0.8-1.8-1.4c-0.5-0.6-0.8-1.3-1-2.1c-0.2-0.8-0.3-1.8-0.3-2.8V340.5z"/>
<path class="st1" d="M439.7,337.7h2.9l0.3,3.7h0.1c0.7-1.3,1.5-2.3,2.5-3.1c1-0.8,2.1-1.1,3.2-1.1c0.8,0,1.5,0.1,2.2,0.4l-0.7,3
	c-0.3-0.1-0.6-0.2-0.9-0.2c-0.3-0.1-0.6-0.1-1-0.1c-0.9,0-1.8,0.3-2.7,1c-0.9,0.7-1.8,1.9-2.5,3.6v13.1h-3.4V337.7z"/>
<path class="st1" d="M453.2,352.8c0-2.2,1-3.9,3-5.1c2-1.2,5.2-2,9.5-2.5c0-0.6-0.1-1.3-0.2-1.9c-0.1-0.6-0.3-1.2-0.7-1.6
	c-0.3-0.5-0.7-0.9-1.3-1.2c-0.5-0.3-1.2-0.4-2.1-0.4c-1.2,0-2.3,0.2-3.3,0.7c-1,0.4-1.9,0.9-2.7,1.5l-1.4-2.4
	c0.9-0.6,2.1-1.2,3.5-1.8c1.4-0.6,2.9-0.9,4.5-0.9c2.5,0,4.3,0.8,5.4,2.3c1.1,1.5,1.7,3.6,1.7,6.1v12.5h-2.8l-0.3-2.4H466
	c-1,0.8-2,1.5-3.2,2.1c-1.1,0.6-2.3,0.9-3.6,0.9c-1.7,0-3.2-0.5-4.3-1.5C453.8,356.1,453.2,354.7,453.2,352.8 M456.6,352.6
	c0,1.2,0.3,2,1,2.5c0.7,0.5,1.5,0.8,2.5,0.8c1,0,1.9-0.2,2.8-0.7c0.9-0.5,1.8-1.1,2.8-2v-5.7c-1.7,0.2-3.1,0.5-4.3,0.8
	c-1.2,0.3-2.1,0.7-2.8,1.1c-0.7,0.4-1.2,0.9-1.5,1.4C456.8,351.3,456.6,351.9,456.6,352.6"/>
<path class="st1" d="M477.3,340.5h-3v-2.6l3.2-0.2l0.4-5.7h2.9v5.7h5.5v2.8h-5.5v11.3c0,1.3,0.2,2.2,0.7,2.9c0.5,0.7,1.3,1,2.5,1
	c0.4,0,0.8-0.1,1.2-0.2c0.4-0.1,0.8-0.2,1.1-0.4l0.7,2.6c-0.6,0.2-1.2,0.4-1.8,0.5c-0.7,0.2-1.3,0.2-2,0.2c-1.1,0-2-0.2-2.7-0.5
	c-0.7-0.3-1.3-0.8-1.8-1.4c-0.5-0.6-0.8-1.3-1-2.1c-0.2-0.8-0.3-1.8-0.3-2.8V340.5z"/>
<path class="st1" d="M493.7,333.5c-0.7,0-1.2-0.2-1.7-0.6c-0.5-0.4-0.7-1-0.7-1.6c0-0.7,0.2-1.2,0.7-1.6c0.5-0.4,1-0.6,1.7-0.6
	c0.7,0,1.2,0.2,1.7,0.6c0.5,0.4,0.7,0.9,0.7,1.6c0,0.6-0.2,1.2-0.7,1.6C495,333.3,494.4,333.5,493.7,333.5 M492,337.7h3.4v20.4H492
	V337.7z"/>
<path class="st1" d="M501.8,348c0-1.7,0.3-3.2,0.8-4.6c0.5-1.3,1.2-2.5,2.1-3.4c0.9-0.9,1.9-1.6,3-2.1c1.1-0.5,2.3-0.7,3.6-0.7
	c1.3,0,2.5,0.2,3.6,0.7c1.1,0.5,2.1,1.2,3,2.1c0.9,0.9,1.6,2,2.1,3.4c0.5,1.3,0.8,2.8,0.8,4.6c0,1.7-0.3,3.2-0.8,4.5
	c-0.5,1.3-1.2,2.4-2.1,3.4c-0.9,0.9-1.9,1.6-3,2.1c-1.1,0.5-2.3,0.7-3.6,0.7c-1.3,0-2.5-0.2-3.6-0.7c-1.1-0.5-2.1-1.2-3-2.1
	c-0.9-0.9-1.6-2-2.1-3.4C502.1,351.1,501.8,349.6,501.8,348 M505.4,348c0,1.2,0.1,2.2,0.4,3.2c0.3,1,0.7,1.8,1.2,2.5
	c0.5,0.7,1.1,1.2,1.9,1.6c0.7,0.4,1.5,0.6,2.4,0.6c0.9,0,1.7-0.2,2.4-0.6c0.7-0.4,1.3-0.9,1.9-1.6c0.5-0.7,0.9-1.5,1.2-2.5
	c0.3-0.9,0.4-2,0.4-3.2c0-1.2-0.1-2.2-0.4-3.2c-0.3-1-0.7-1.8-1.2-2.5c-0.5-0.7-1.1-1.2-1.9-1.6c-0.7-0.4-1.5-0.6-2.4-0.6
	c-0.9,0-1.7,0.2-2.4,0.6c-0.7,0.4-1.4,0.9-1.9,1.6c-0.5,0.7-0.9,1.5-1.2,2.5C505.5,345.7,505.4,346.8,505.4,348"/>
<path class="st1" d="M526.3,337.7h2.9l0.3,2.9h0.1c1-1,2-1.8,3.1-2.5c1.1-0.7,2.3-1,3.8-1c2.2,0,3.7,0.7,4.7,2c1,1.3,1.5,3.3,1.5,6
	v12.9h-3.4v-12.5c0-1.9-0.3-3.3-0.9-4.2c-0.6-0.9-1.6-1.3-2.9-1.3c-1.1,0-2,0.3-2.8,0.8c-0.8,0.5-1.7,1.3-2.8,2.3v14.8h-3.4V337.7z"
	/>
</svg>
