<svg xmlns="http://www.w3.org/2000/svg" viewBox="0 0 92.55 92.15"><defs><style>.cls-1{fill:#ff6800;fill-rule:evenodd;}</style></defs><g id="Layer_2" data-name="Layer 2"><g id="Layer_1-2" data-name="Layer 1"><path class="cls-1" d="M69.72,16.28c-3.35,0-6.08-.13-8.77.08a3.35,3.35,0,0,0-2.37,1.69c-1.58,3.81-2.92,7.72-4.34,11.6-.48,1.31-.94,2.63-1.42,3.94a122.13,122.13,0,0,0,9.12-13.06c1.4-2.25,2.6-4.6,5.48-1.59ZM36,77.13l5.67-18.54-.7-.29c-.82,1.11-1.7,2.19-2.46,3.35Q34.22,68.18,30,74.77c-.75,1.17-1.52,2-3,1-1.69-1.2-2,.19-2.69,1.41ZM57.2,45l.06.52,1.3.09,19.28.8c1.44.06,2.54.29,2.55,2.2,0,2.2.23,2.24,2.9,1.89-1.92-3.24-3.75-6.43-5.72-9.54a2.19,2.19,0,0,0-1.84-.84C69.54,41.69,63.37,43.37,57.2,45ZM60,81.75l7.25-11.54-14.09-15a6.34,6.34,0,0,0,.59,3.34c2.32,5,4.59,10.1,7.06,15.07,1.16,2.32,1.64,4.14-1.58,5C59.48,79.56,59.67,80.31,60,81.75ZM9.32,41.09c2.52,4.24,4.61,7.91,6.89,11.46a2.7,2.7,0,0,0,2.38.71q7.57-1.84,15.07-4a24.17,24.17,0,0,0,3.73-1.81c-.63-.72-1-.88-1.44-.89-6.08-.21-12.17-.44-18.26-.59-4.29-.11-4.29-.06-5.24-4.17Zm31.55-3,.62-.44A26.63,26.63,0,0,0,40.68,35C38.35,29.2,36,23.39,33.61,17.61c-.68-1.65-.76-2.75,1.28-3.44s1.14-1.87.25-3.3L26.9,22.57ZM76.8,74.74c.33-8.52.68-16.4.88-24.29,0-.53-1.1-1.53-1.72-1.56-7.66-.36-15.32-.6-23-.81a5.9,5.9,0,0,0-1.81.59c.24.58.31,1.32.72,1.73C60,58.37,68.14,66.3,76.8,74.74ZM15.42,43.34l27.63,1c.06-.22.11-.44.16-.67L16.35,17.48ZM35.61,86.87l23.47-11L47.57,51.51l-1.11.2C42.92,63.16,39.39,74.62,35.61,86.87ZM42.89,50.1c-.14-.19-.27-.39-.4-.59L6.22,59.27l21.71,14ZM86.78,34.46l-21.73-14L50.11,43.62l.41.56,36.26-9.72ZM46.66,43c4.53-12.38,8.76-24,13.23-36.17l-24,9.72Zm6.8,38.24C47.52,84,42,86.6,36.47,89.11a18.44,18.44,0,0,1-3.43.81c.06-1.16,0-2.33.2-3.48a31.37,31.37,0,0,1,.85-3.11H19.75a8.21,8.21,0,0,1-2.63-.06c-1.08-.38-2.48-.94-2.88-1.81a3.94,3.94,0,0,1,.6-3.3c1.69-2.24,3.7-4.26,5.8-6.6L1.78,59.17,2,58.11l8.6-2.71L1.24,39.55C.39,38.11-.69,36.69.59,34.94S3.68,33.65,5.43,34c2.49.52,5,1,7.8,1.59.23-5.79.38-11.33.68-16.86a48.08,48.08,0,0,1,.5-5.62,50.89,50.89,0,0,1,3.71,3.49,22.57,22.57,0,0,1,3.24,3.08L31.42,5.46A34.09,34.09,0,0,1,34.55,1.2,3.8,3.8,0,0,1,37.48,0,4.09,4.09,0,0,1,39.9,2.42c.89,2.82,1.4,5.77,2.14,9C47.46,9.22,52.59,7.1,57.76,5.13a40.34,40.34,0,0,1,4.93-1.22c-.29,1.58-.58,3.16-.86,4.74-.08.41-.14.83-.26,1.54,4.66,0,9.16-.15,13.64.09,1.47.07,3.63.84,4.1,1.9s-.57,3-1.44,4.27a75.12,75.12,0,0,1-5.19,6L91.25,34.53l-.23,1-7.88,2.55c3,5,5.91,9.82,8.61,14.74a5.82,5.82,0,0,1,.6,4.31c-.72,1.85-2.69,1.5-4.42,1.11-2.56-.57-5.15-1-8-1.58-.24,6.25-.46,12.24-.69,18.23,0,.7,0,1.41-.14,2.11-.28,1.87-1.34,2.07-2.49.82a52.63,52.63,0,0,1-3.35-4.44l-1.12.68q-3,4.74-6,9.5c-1.47,2.32-2.77,4.75-4.43,6.91a4.37,4.37,0,0,1-3.19,1.63A3.81,3.81,0,0,1,56,89.87C55,87.17,54.35,84.33,53.46,81.23Z"/></g></g></svg>